<?xml version="1.0" encoding="utf-8"?>
<!-- Generator: Adobe Illustrator 17.0.2, SVG Export Plug-In . SVG Version: 6.00 Build 0)  -->
<!DOCTYPE svg PUBLIC "-//W3C//DTD SVG 1.1//EN" "http://www.w3.org/Graphics/SVG/1.1/DTD/svg11.dtd">
<svg version="1.1" id="Layer_1" xmlns="http://www.w3.org/2000/svg" xmlns:xlink="http://www.w3.org/1999/xlink" x="0px" y="0px"
	 width="16px" height="16px" viewBox="0 0 16 16" enable-background="new 0 0 16 16" xml:space="preserve">
<g>
	<g>
		<path fill="#FFFFFF" d="M5.6,9l-3.3,3.3L1,11c-0.6,0-1,0.4-1,1v3c0,0.6,0.4,1,1,1h3c0.6,0,1-0.4,1-1l-1.3-1.3L7,10.4L5.6,9z M15,0
			h-3c-0.6,0-1,0.4-1,1l1.3,1.3L9,5.6L10.4,7l3.3-3.3L15,5c0.6,0,1-0.4,1-1V1C16,0.4,15.6,0,15,0z M5,1c0-0.6-0.4-1-1-1H1
			C0.4,0,0,0.4,0,1v3c0,0.6,0.4,1,1,1l1.3-1.3L5.6,7L7,5.6L3.7,2.3L5,1z M15,11l-1.3,1.3L10.4,9L9,10.4l3.3,3.3L11,15
			c0,0.6,0.4,1,1,1h3c0.6,0,1-0.4,1-1v-3C16,11.4,15.6,11,15,11z"/>
	</g>
</g>
</svg>
