<?xml version="1.0" encoding="utf-8"?>
<!-- Generator: Adobe Illustrator 17.0.2, SVG Export Plug-In . SVG Version: 6.00 Build 0)  -->
<!DOCTYPE svg PUBLIC "-//W3C//DTD SVG 1.1//EN" "http://www.w3.org/Graphics/SVG/1.1/DTD/svg11.dtd">
<svg version="1.1" id="Layer_1" xmlns="http://www.w3.org/2000/svg" xmlns:xlink="http://www.w3.org/1999/xlink" x="0px" y="0px"
	 width="16px" height="16px" viewBox="0 0 16 16" enable-background="new 0 0 16 16" xml:space="preserve">
<path fill-rule="evenodd" clip-rule="evenodd" fill="#FFFFFF" d="M16,7v2h-2.1c-0.1,0.9-0.5,1.7-1,2.4l2.1,1.8L13.6,15l-2.3-2
	c-0.7,0.4-1.4,0.8-2.3,0.9V16H7v-2.1c-0.8-0.1-1.6-0.5-2.3-0.9l-2.3,2L1,13.2l2.1-1.8c-0.5-0.7-0.8-1.5-1-2.4H0V7h2.1
	c0.1-0.9,0.5-1.7,1-2.4L1,2.8L2.4,1l2.3,2C5.4,2.6,6.2,2.2,7,2.1V0h2v2.1c0.8,0.1,1.6,0.5,2.3,0.9l2.3-2L15,2.8l-2.1,1.8
	c0.5,0.7,0.8,1.5,1,2.4H16z M8,5C6.3,5,5,6.3,5,8s1.3,3,3,3c1.7,0,3-1.3,3-3S9.7,5,8,5z"/>
</svg>
