<?xml version="1.0" encoding="utf-8"?>
<!-- Generator: Adobe Illustrator 17.0.2, SVG Export Plug-In . SVG Version: 6.00 Build 0)  -->
<!DOCTYPE svg PUBLIC "-//W3C//DTD SVG 1.1//EN" "http://www.w3.org/Graphics/SVG/1.1/DTD/svg11.dtd">
<svg version="1.1" id="Layer_1" xmlns="http://www.w3.org/2000/svg" xmlns:xlink="http://www.w3.org/1999/xlink" x="0px" y="0px"
	 width="16px" height="16px" viewBox="0 0 16 16" enable-background="new 0 0 16 16" xml:space="preserve">
<path fill-rule="evenodd" clip-rule="evenodd" fill="#FFFFFF" d="M8,16c-4.4,0-8-3.6-8-8c0-4.4,3.6-8,8-8s8,3.6,8,8
	C16,12.4,12.4,16,8,16z M8,2C4.7,2,2,4.7,2,8c0,3.3,2.7,6,6,6c3.3,0,6-2.7,6-6C14,4.7,11.3,2,8,2z M7,10h2v2H7V10z M7,4h2v5H7V4z"/>
</svg>
