<?xml version="1.0" encoding="utf-8"?>
<!-- Generator: Adobe Illustrator 17.0.2, SVG Export Plug-In . SVG Version: 6.00 Build 0)  -->
<!DOCTYPE svg PUBLIC "-//W3C//DTD SVG 1.1//EN" "http://www.w3.org/Graphics/SVG/1.1/DTD/svg11.dtd">
<svg version="1.1" id="Layer_1" xmlns="http://www.w3.org/2000/svg" xmlns:xlink="http://www.w3.org/1999/xlink" x="0px" y="0px"
	 width="12px" height="16px" viewBox="0 0 12 16" enable-background="new 0 0 12 16" xml:space="preserve">
<g>
	<g>
		<path fill="#FFFFFF" d="M6.5,15h-1C5.2,15,5,15.2,5,15.5S5.2,16,5.5,16h1C6.8,16,7,15.8,7,15.5S6.8,15,6.5,15z M6.5,0h-1
			C2.5,0,0,2.5,0,5.5c0,2.1,1.2,4,3,4.9V11c0,0.6,0.4,1,1,1h4c0.6,0,1-0.4,1-1v-0.6c1.8-0.9,3-2.8,3-4.9C12,2.5,9.5,0,6.5,0z M7,8.9
			V10H5V8.9C3.3,8.7,2,7.3,2,5.5C2,3.6,3.6,2,5.5,2h1C8.4,2,10,3.6,10,5.5C10,7.3,8.7,8.7,7,8.9z M7.5,13h-3C4.2,13,4,13.2,4,13.5
			S4.2,14,4.5,14h3C7.8,14,8,13.8,8,13.5S7.8,13,7.5,13z"/>
	</g>
</g>
</svg>
