<?xml version="1.0" encoding="utf-8"?>
<!-- Generator: Adobe Illustrator 17.0.2, SVG Export Plug-In . SVG Version: 6.00 Build 0)  -->
<!DOCTYPE svg PUBLIC "-//W3C//DTD SVG 1.1//EN" "http://www.w3.org/Graphics/SVG/1.1/DTD/svg11.dtd">
<svg version="1.1" id="Shape_33_copy_2_1_" xmlns="http://www.w3.org/2000/svg" xmlns:xlink="http://www.w3.org/1999/xlink" x="0px"
	 y="0px" width="54px" height="60px" viewBox="0 0 54 60" enable-background="new 0 0 54 60" xml:space="preserve">
<g id="Shape_33_copy_2">
	<g>
		<path fill-rule="evenodd" clip-rule="evenodd" fill="#13A8DF" d="M53.9,24.7c-0.7-6.3-6.1-10.8-12-10l-6.8,0.9
			c-7.4-0.4-13.6-7.8-15.9-11C15.7-0.5,9-1.5,4.3,2.3c-4.7,3.8-5.7,11-2.1,16.1L2.6,19l-0.5-0.5c2.3,3.2,7.4,11.9,5.5,19.8
			c-0.2,0.6-0.2,1.1-0.3,1.5l-1.7,4.4c-2.3,5.8,0.2,12.6,5.7,15c5.5,2.5,11.8-0.2,14.1-6.1l0.7-1.6c2.1-4.2,6.8-11.5,13.4-13
			c0.5-0.1,0.9-0.2,1.2-0.3l4-0.5C50.4,36.7,54.6,31,53.9,24.7z"/>
	</g>
</g>
</svg>
