<?xml version="1.0" encoding="utf-8"?>
<!-- Generator: Adobe Illustrator 17.0.2, SVG Export Plug-In . SVG Version: 6.00 Build 0)  -->
<!DOCTYPE svg PUBLIC "-//W3C//DTD SVG 1.1//EN" "http://www.w3.org/Graphics/SVG/1.1/DTD/svg11.dtd">
<svg version="1.1" id="Layer_1" xmlns="http://www.w3.org/2000/svg" xmlns:xlink="http://www.w3.org/1999/xlink" x="0px" y="0px"
	 width="23.9px" height="21px" viewBox="0 0 23.9 21" enable-background="new 0 0 23.9 21" xml:space="preserve">
<g>
	<g>
		<path fill-rule="evenodd" clip-rule="evenodd" fill="#FFFFFF" d="M23.1,11c0.3-0.5,0.5-0.9,0.5-1.3c0.2-0.7,0.3-1.4,0.3-2.2
			c0-4.1-3.3-7.5-7.3-7.5c-1.8,0-3.4,0.7-4.7,1.8C10.7,0.7,9.1,0,7.3,0C3.3,0,0,3.4,0,7.5C0,8.3,0.1,9,0.3,9.7
			c0.1,0.4,0.3,0.9,0.5,1.3c0.4,0.8,1,1.5,1.6,2.1C5.9,16.8,12,21,12,21s6.1-4.2,9.5-7.8C22.1,12.6,22.6,11.8,23.1,11z"/>
	</g>
</g>
</svg>
