<?xml version="1.0" encoding="utf-8"?>
<!-- Generator: Adobe Illustrator 17.0.2, SVG Export Plug-In . SVG Version: 6.00 Build 0)  -->
<!DOCTYPE svg PUBLIC "-//W3C//DTD SVG 1.1//EN" "http://www.w3.org/Graphics/SVG/1.1/DTD/svg11.dtd">
<svg version="1.1" id="Layer_1" xmlns="http://www.w3.org/2000/svg" xmlns:xlink="http://www.w3.org/1999/xlink" x="0px" y="0px"
	 width="25.6px" height="22px" viewBox="0 0 25.6 22" enable-background="new 0 0 25.6 22" xml:space="preserve">
<g>
	<g>
		<path fill-rule="evenodd" clip-rule="evenodd" fill="#FFFFFF" d="M8.8,16h8l0.5-1h-9L8.8,16z M20.9,0H4.8L0,10.9l1,11h23.6l1-11
			L20.9,0z M20.8,11.1l-3,6h-10l-3-6H2L6.8,1h12.1l4.8,10H20.8z M7.8,14h10l0.5-1h-11L7.8,14z M7.5,2l-3.7,8h2l1,2h12l1-2h2l-3.7-8
			H7.5z M12.5,11l-4-3.6L10.1,6l2.1,1.8L16.4,3l1.4,1L12.5,11z"/>
	</g>
</g>
</svg>
