<?xml version="1.0" encoding="utf-8"?>
<!-- Generator: Adobe Illustrator 17.0.2, SVG Export Plug-In . SVG Version: 6.00 Build 0)  -->
<!DOCTYPE svg PUBLIC "-//W3C//DTD SVG 1.1//EN" "http://www.w3.org/Graphics/SVG/1.1/DTD/svg11.dtd">
<svg version="1.1" id="Layer_1" xmlns="http://www.w3.org/2000/svg" xmlns:xlink="http://www.w3.org/1999/xlink" x="0px" y="0px"
	 width="26px" height="17.3px" viewBox="0 0 26 17.3" enable-background="new 0 0 26 17.3" xml:space="preserve">
<g>
	<g>
		<path fill-rule="evenodd" clip-rule="evenodd" fill="#FFFFFF" d="M0,3.2v14c0,0,6.5-4.3,11.9,0c1,0,1.1,0,1.1,0s0-11.8,0-15.1
			C4.4-3.3,0,3.2,0,3.2z M11.9,4.3c0,0,0,6.6,0,9.7c-5-2.3-9.7-0.4-9.7-0.4l0-9.2c0,0,2.2-1.8,4.6-1.8C9.2,2.6,11.9,4.3,11.9,4.3z
			 M13,2.2c0,3.2,0,15.1,0,15.1s0.1,0,1.1,0c5.4-4.3,11.9,0,11.9,0v-14C26,3.2,21.7-3.3,13,2.2z M14.1,14c0-3.1,0-9.7,0-9.7
			s2.7-1.7,5.1-1.7c2.4,0,4.6,1.8,4.6,1.8l0,9.2C23.8,13.6,19,11.8,14.1,14z"/>
	</g>
</g>
</svg>
