<?xml version="1.0" encoding="utf-8"?>
<!-- Generator: Adobe Illustrator 17.0.2, SVG Export Plug-In . SVG Version: 6.00 Build 0)  -->
<!DOCTYPE svg PUBLIC "-//W3C//DTD SVG 1.1//EN" "http://www.w3.org/Graphics/SVG/1.1/DTD/svg11.dtd">
<svg version="1.1" id="Layer_1" xmlns="http://www.w3.org/2000/svg" xmlns:xlink="http://www.w3.org/1999/xlink" x="0px" y="0px"
	 width="36px" height="28.1px" viewBox="0 0 36 28.1" enable-background="new 0 0 36 28.1" xml:space="preserve">
<path fill-rule="evenodd" clip-rule="evenodd" fill="#FFFFFF" d="M21.9,28.1h-6.1h0H0h0v-4.5c0,0,0.3-2.5,1.7-3
	c1.3-0.4,3.9-1.6,5.2-2.9c-0.1-0.1-0.1-0.3-0.1-0.4c0-0.5,0.4-0.9,0.8-1c0.2-1,0.1-2.1,0.1-1.5c0-1-1.4-2.9-1.4-3.9
	c-0.5,0-0.5-0.5-0.5-0.5V8.7h0.5c0,0,0-1.5,0-2.9c0,0,0-0.1,0-0.5c0,0,0,0,0-0.1c0-0.2,0-0.5,0-0.9c0-2.9,7.1-4.3,7.1-4.3
	s-0.5,1-0.5,1.4c1.4,0.5,2.4,2.4,2.4,2.9c0,1.4,0,4.3,0,4.3h0.5v1.9c0,0,0,0.5-0.5,0.5c0,1-1.4,2.9-1.4,3.9c0,0.6,0,1,0.1,1.5
	c0.5,0,0.9,0.4,0.9,1c0,0.2,0,0.3-0.1,0.5c0.9,1,2.6,1.9,3.9,2.4c1.6-0.7,3.6-1.8,4.4-2.9c0.6-1,0.5-3.3,0.5-2.4
	c0-1-3.2-0.8-3.2-1.7c-0.5,0,1.1-1.2,1.3-2.6c0.2-1.5,0.5-6,0.5-6s0.5-2.9,4.4-2.9c3.9,0,4,2.9,4,2.9s0.4,4.6,0.5,6.1
	c0.1,1.4,1.5,2.5,1,2.5c0,1-2.9,0.9-2.9,1.8c0,1-0.1,1.5,0.5,2.4c0.9,1.4,3.1,1.9,4.3,2.7c1.7,1.2,2.2,3.5,2.2,3.5v4.5H21.9z"/>
</svg>
