<?xml version="1.0" encoding="utf-8"?>
<!-- Generator: Adobe Illustrator 17.0.2, SVG Export Plug-In . SVG Version: 6.00 Build 0)  -->
<!DOCTYPE svg PUBLIC "-//W3C//DTD SVG 1.1//EN" "http://www.w3.org/Graphics/SVG/1.1/DTD/svg11.dtd">
<svg version="1.1" id="Layer_1" xmlns="http://www.w3.org/2000/svg" xmlns:xlink="http://www.w3.org/1999/xlink" x="0px" y="0px"
	 width="69px" height="43.1px" viewBox="0 0 69 43.1" enable-background="new 0 0 69 43.1" xml:space="preserve">
<g>
	<g>
		<path fill-rule="evenodd" clip-rule="evenodd" fill="#FFFFFF" d="M34.5,0C15.4,0,0,21.5,0,21.5s15.4,21.5,34.5,21.5
			C53.6,43.1,69,21.5,69,21.5S53.6,0,34.5,0z M34.5,34.5c-7.1,0-12.9-5.8-12.9-12.9c0-7.1,5.8-12.9,12.9-12.9
			c7.1,0,12.9,5.8,12.9,12.9C47.4,28.7,41.6,34.5,34.5,34.5z M34.5,12.9c-4.8,0-8.6,3.9-8.6,8.6c0,4.8,3.9,8.6,8.6,8.6
			c4.8,0,8.6-3.9,8.6-8.6C43.1,16.8,39.3,12.9,34.5,12.9z"/>
	</g>
</g>
</svg>
