<?xml version="1.0" encoding="utf-8"?>
<!-- Generator: Adobe Illustrator 17.0.2, SVG Export Plug-In . SVG Version: 6.00 Build 0)  -->
<!DOCTYPE svg PUBLIC "-//W3C//DTD SVG 1.1//EN" "http://www.w3.org/Graphics/SVG/1.1/DTD/svg11.dtd">
<svg version="1.1" id="Layer_1" xmlns="http://www.w3.org/2000/svg" xmlns:xlink="http://www.w3.org/1999/xlink" x="0px" y="0px"
	 width="61px" height="61px" viewBox="0 0 61 61" enable-background="new 0 0 61 61" xml:space="preserve">
<path fill-rule="evenodd" clip-rule="evenodd" fill="#FFFFFF" d="M60.4,55.2c0.7,0.7,0.7,1.9,0,2.6l-2.6,2.6c-0.7,0.7-1.9,0.7-2.6,0
	L36.7,42c-0.2-0.2-0.3-0.4-0.4-0.7c-3.8,2.8-8.4,4.4-13.5,4.4C10.2,45.7,0,35.5,0,22.9C0,10.2,10.2,0,22.9,0
	c12.6,0,22.9,10.2,22.9,22.9c0,5-1.6,9.7-4.4,13.5c0.3,0.1,0.5,0.2,0.7,0.4L60.4,55.2z M22.9,7.6c-8.4,0-15.2,6.8-15.2,15.2
	c0,8.4,6.8,15.2,15.2,15.2c8.4,0,15.2-6.8,15.2-15.2C38.1,14.4,31.3,7.6,22.9,7.6z"/>
</svg>
