<?xml version="1.0" encoding="utf-8"?>
<!-- Generator: Adobe Illustrator 17.0.2, SVG Export Plug-In . SVG Version: 6.00 Build 0)  -->
<!DOCTYPE svg PUBLIC "-//W3C//DTD SVG 1.1//EN" "http://www.w3.org/Graphics/SVG/1.1/DTD/svg11.dtd">
<svg version="1.1" id="Layer_1" xmlns="http://www.w3.org/2000/svg" xmlns:xlink="http://www.w3.org/1999/xlink" x="0px" y="0px"
	 width="61px" height="64px" viewBox="0 0 61 64" enable-background="new 0 0 61 64" xml:space="preserve">
<path fill-rule="evenodd" clip-rule="evenodd" fill="#FFFFFF" d="M60.1,55.1l-8,8C51.6,63.7,50.8,64,50,64c-0.8,0-1.6-0.3-2.1-0.9
	l-4-4C43.3,58.6,43,57.8,43,57c0-1.7,1.3-3,3-3c0.8,0,1.6,0.3,2.1,0.9l1.9,1.9l5.9-5.9c0.5-0.5,1.3-0.9,2.1-0.9c1.7,0,3,1.3,3,3
	C61,53.8,60.7,54.6,60.1,55.1z M50,52.6c-1.1-1-2.4-1.6-4-1.6c-3.3,0-6,2.7-6,6c0,1.7,0.7,3.1,1.8,4.2l0,0l2.8,2.8H3
	c-1.7,0-3-1.3-3-3V9c0-1.7,1.3-3,3-3h5v3c0,3.3,2.7,6,6,6c3.3,0,6-2.7,6-6V6h3v3c0,3.3,2.7,6,6,6c3.3,0,6-2.7,6-6V6h3v3
	c0,3.3,2.7,6,6,6c3.3,0,6-2.7,6-6V6h5c1.7,0,3,1.3,3,3v38c-1.7,0-3.2,0.7-4.2,1.8L50,52.6z M8,51.5c0,1.4,1.1,2.5,2.5,2.5h19
	c1.4,0,2.5-1.1,2.5-2.5l0,0l0,0l0,0l0,0c0-1.4-1.1-2.5-2.5-2.5h-19C9.1,49,8,50.1,8,51.5z M47,23H11c-1.7,0-3,1.3-3,3
	c0,1.7,1.3,3,3,3h36c1.7,0,3-1.3,3-3C50,24.3,48.7,23,47,23z M47,36H29h-5H11c-1.7,0-3,1.3-3,3s1.3,3,3,3h13h5h18c1.7,0,3-1.3,3-3
	S48.7,36,47,36z M44,12c-1.7,0-3-1.3-3-3V3c0-1.7,1.3-3,3-3s3,1.3,3,3v6C47,10.7,45.7,12,44,12z M29,12c-1.7,0-3-1.3-3-3V3
	c0-1.7,1.3-3,3-3c1.7,0,3,1.3,3,3v6C32,10.7,30.7,12,29,12z M14,12c-1.7,0-3-1.3-3-3V3c0-1.7,1.3-3,3-3c1.7,0,3,1.3,3,3v6
	C17,10.7,15.7,12,14,12z"/>
</svg>
