<?xml version="1.0" encoding="utf-8"?>
<!-- Generator: Adobe Illustrator 17.1.0, SVG Export Plug-In . SVG Version: 6.00 Build 0)  -->
<!DOCTYPE svg PUBLIC "-//W3C//DTD SVG 1.1//EN" "http://www.w3.org/Graphics/SVG/1.1/DTD/svg11.dtd">
<svg version="1.1" xmlns="http://www.w3.org/2000/svg" xmlns:xlink="http://www.w3.org/1999/xlink" x="0px" y="0px"
	 viewBox="0 0 60 60" enable-background="new 0 0 60 60" xml:space="preserve">
<g id="Layer_2" display="none">
	<rect x="-0.9" y="-2.4" display="inline" stroke="#FFFFFF" stroke-miterlimit="10" width="73" height="71.8"/>
</g>
<g id="Layer_1">
	<g>
		<g>
			<path fill="#FFFFFF" d="M17.1,43.1l18.5-7.6l7.6-18.6l-18.6,7.4L17.1,43.1z M30.1,26.3c2.1,0,3.7,1.7,3.7,3.7
				c0,2.1-1.7,3.7-3.7,3.7c-2.1,0-3.7-1.7-3.7-3.7C26.3,28,28,26.3,30.1,26.3z M30,0C13.4,0,0,13.4,0,30c0,16.6,13.4,30,30,30
				c16.6,0,30-13.4,30-30C60,13.4,46.6,0,30,0z M30.2,52.5C17.7,52.5,7.6,42.4,7.6,30c0-12.5,10.1-22.6,22.6-22.6
				c12.5,0,22.6,10.1,22.6,22.6C52.8,42.4,42.7,52.5,30.2,52.5z"/>
		</g>
	</g>
</g>
</svg>
