<?xml version="1.0" encoding="utf-8"?>
<!-- Generator: Adobe Illustrator 15.0.0, SVG Export Plug-In  -->
<!DOCTYPE svg PUBLIC "-//W3C//DTD SVG 1.1//EN" "http://www.w3.org/Graphics/SVG/1.1/DTD/svg11.dtd" [
	<!ENTITY ns_flows "http://ns.adobe.com/Flows/1.0/">
]>
<svg version="1.1"
	 xmlns="http://www.w3.org/2000/svg" xmlns:xlink="http://www.w3.org/1999/xlink" xmlns:a="http://ns.adobe.com/AdobeSVGViewerExtensions/3.0/"
	 x="0px" y="0px" width="400px" height="110px" viewBox="0 -0.2 400 110"
	 overflow="visible" enable-background="new 0 -0.2 400 110" xml:space="preserve">
<defs>
</defs>
<path d="M282.5,3.1c-0.1-1.7-1.6-3.1-3.3-3.1H152.6c-1.8,0-3.2,1.4-3.3,3.1l0,85.5c0,1.8,1.5,3.3,3.3,3.3h126.6
	c1.8,0,3.3-1.5,3.3-3.3L282.5,3.1z M277.2,76H154.6V5.3h122.6L277.2,76L277.2,76z"/>
<path d="M237.2,107.9c-5.3-1.3-6.7-5.3-6.7-10.7v-1.3h-14.7h-14.7v1.3c0,5.3-1.3,9.3-6.7,10.7c-1.3,0.3-1.3,2.7,0,2.7h21.3h21.3
	C238.5,110.6,238.5,108.3,237.2,107.9z"/>
<path d="M131.6,105.2v5.4H0v-5.4l12.9-4.4h5.3c-2.8-0.2-5.1-2.6-5.1-5.5V38.7c0-3,2.5-5.5,5.5-5.5h93.6c3,0,5.5,2.5,5.5,5.5v56.6
	c0,2.9-2.2,5.2-5.1,5.5h3.2L131.6,105.2z M18.3,96.2h94.3V37.8H18.3V96.2z M9.6,105.2h109.5l-8.8-2.7h-92L9.6,105.2z"/>
<path d="M353.2,40.6h-47.6c-1.9,0-3.5,1.6-3.5,3.5v63c0,1.9,1.6,3.5,3.5,3.5h47.6c1.9,0,3.5-1.6,3.5-3.5v-63
	C356.7,42.1,355.1,40.6,353.2,40.6z M329.4,109.6c-1,0-1.8-0.8-1.8-1.8s0.8-1.8,1.8-1.8c1,0,1.8,0.8,1.8,1.8
	S330.4,109.6,329.4,109.6z M351.1,104.3c0,0.4-0.3,0.7-0.7,0.7h-42c-0.4,0-0.7-0.3-0.7-0.7V46.9c0-0.4,0.3-0.7,0.7-0.7h42
	c0.4,0,0.7,0.3,0.7,0.7V104.3z"/>
<path d="M396.6,65.3h-16c-2,0-3.6,1.6-3.6,3.6v38.2c0,2,1.6,3.6,3.6,3.6h16c2,0,3.6-1.6,3.6-3.6V68.8
	C400.2,66.9,398.6,65.3,396.6,65.3z M386.9,69h3.5c0.3,0,0.5,0.2,0.5,0.5s-0.2,0.5-0.5,0.5h-3.5c-0.3,0-0.5-0.2-0.5-0.5
	S386.6,69,386.9,69z M384.8,68.9c0.3,0,0.6,0.3,0.6,0.6s-0.3,0.6-0.6,0.6s-0.6-0.3-0.6-0.6S384.5,68.9,384.8,68.9z M388.6,108.7
	c-1.2,0-2.2-1-2.2-2.2c0-1.2,1-2.2,2.2-2.2c1.2,0,2.2,1,2.2,2.2C390.8,107.7,389.8,108.7,388.6,108.7z M398.4,102.7h-19.5V73.2h19.5
	V102.7z"/>
</svg>
